# xmcd CD database file
#
# Track frame offsets:
#	150
#	46497
#	86282
#	107515
#	119560
#	146365
#	169897
#	182597
#	203357
#	238037
#	240355
#	282565
#	286777
#	295272
#	305050
#	320310
#
# Disc length: 4514 seconds
#
# Revision: 3
# Processed by: cddbd v1.5.2PL0 Copyright (c) Steve Scherf et al.
# Submitted via: CDex 1.70beta3
#
DISCID=df11a010
DTITLE=黛敏郎 - 岩城宏之
DYEAR=2002
DGENRE=Classical
TTITLE0=涅槃交響曲 - Campanology I
TTITLE1=涅槃交響曲 - 首楞厳神咒
TTITLE2=涅槃交響曲 - Campanology II
TTITLE3=涅槃交響曲 - 摩訶梵
TTITLE4=涅槃交響曲 - Campanology III
TTITLE5=涅槃交響曲 - 終曲 (一心敬礼)
TTITLE6=薬師悔過 - 散華
TTITLE7=薬師悔過 - 梵音
TTITLE8=薬師悔過 - 錫杖
TTITLE9=薬師悔過 - 請呪願
TTITLE10=薬師悔過 - 称名悔過 (前段)
TTITLE11=薬師悔過 - 称名悔過 (後段)
TTITLE12=薬師悔過 - 唱名号
TTITLE13=薬師悔過 - 祈請
TTITLE14=薬師悔過 - 大懺悔
TTITLE15=薬師悔過 - 牛玉加持行道
EXTD=YEAR: 2002
EXTT0=
EXTT1=
EXTT2=
EXTT3=
EXTT4=
EXTT5=
EXTT6=
EXTT7=
EXTT8=
EXTT9=
EXTT10=
EXTT11=
EXTT12=
EXTT13=
EXTT14=
EXTT15=
PLAYORDER=
